<svg xmlns="http://www.w3.org/2000/svg" data-name="Layer 1" viewBox="0 0 128 128"><path d="M79.86 78.19 103.69 102a1.56 1.56 0 0 0 2.67-1.1V77.08a1.56 1.56 0 0 0-1.56-1.56H81a1.56 1.56 0 0 0-1.14 2.67Z" style="fill:#f42534"/><path d="M58.35 75.52H4.12A1.56 1.56 0 0 0 3 78.19l27.13 27.11a1.56 1.56 0 0 0 2.21 0l27.11-27.11a1.56 1.56 0 0 0-1.1-2.67Z" style="fill:#d82237"/><path d="M66 116.32v-32a1.56 1.56 0 0 0-2.67-1.1l-32 32a1.56 1.56 0 0 0 1.1 2.67h32a1.56 1.56 0 0 0 1.57-1.57Z" style="fill:#c3002f"/><path d="M96.7 103.86 76 83.19a1.56 1.56 0 0 0-2.67 1.1v41.35a1.56 1.56 0 0 0 2.67 1.1l20.7-20.67a1.56 1.56 0 0 0 0-2.21Z" style="fill:#911a1d"/><path d="M81 69.27h42.12a1.56 1.56 0 0 0 1.1-2.67l-21.09-21.05a1.56 1.56 0 0 0-2.21 0L79.86 66.61A1.56 1.56 0 0 0 81 69.27Z" style="fill:#a41f35"/><path d="M73.36 26.91v33.6a1.56 1.56 0 0 0 2.64 1.1L109.62 28a1.56 1.56 0 0 0-1.1-2.67h-33.6a1.56 1.56 0 0 0-1.56 1.58Z" style="fill:#d6202a"/><path d="M19.68 30.61v37.1a1.56 1.56 0 0 0 1.56 1.56h37.1a1.56 1.56 0 0 0 1.1-2.67L22.35 29.5a1.56 1.56 0 0 0-2.67 1.11Z" style="fill:#ac162c"/><path d="m34.22 32.54 29.07 29.07a1.56 1.56 0 0 0 2.71-1.1V2.37a1.56 1.56 0 0 0-2.67-1.1L34.22 30.33a1.56 1.56 0 0 0 0 2.21Z" style="fill:#eb0029"/></svg>